<svg xmlns="http://www.w3.org/2000/svg" viewBox="0 0 100 100"><defs><style>.cls-1{fill:#753bbd;}</style></defs><title>heart_purple</title><g id="Capa_1" data-name="Capa 1"><path class="cls-1" d="M1.43,36.68C1.22,22.21,10.8,10.59,24,8.49A26.4,26.4,0,0,1,47.2,15.65c.71.66,1.36,1.89,2.13,1.82s1.42-1.2,2.09-1.91A27.29,27.29,0,0,1,66.57,7.18,26.79,26.79,0,0,1,97.85,27.75a26.2,26.2,0,0,1-7.08,25C78,66,65.2,79.08,52.4,92.24c-1.34,1.38-2.69,1.39-4.09,0C35.21,79.5,22.06,66.78,9,53.93A25.2,25.2,0,0,1,1.43,36.68Z"/></g></svg>